<?xml version="1.0" standalone="no"?>
<!DOCTYPE svg PUBLIC "-//W3C//DTD SVG 20010904//EN"
 "http://www.w3.org/TR/2001/REC-SVG-20010904/DTD/svg10.dtd">
<svg version="1.0" xmlns="http://www.w3.org/2000/svg"
 width="752.000000pt" height="752.000000pt" viewBox="0 0 752.000000 752.000000"
 preserveAspectRatio="xMidYMid meet">

<g transform="translate(0.000000,752.000000) scale(0.100000,-0.100000)"
fill="#000000" stroke="none">
<path d="M2140 7305 l0 -175 -260 0 -260 0 0 -172 0 -173 242 -242 243 -243
295 295 c163 162 302 295 309 295 7 0 148 -135 314 -299 166 -165 304 -297
307 -294 3 2 5 53 5 111 0 90 4 113 22 148 54 101 102 134 239 160 49 10 114
29 144 43 48 23 68 26 155 26 86 0 106 -3 145 -24 95 -49 134 -107 153 -227
l12 -75 137 143 137 143 -2 270 -2 270 -492 0 -493 0 0 -242 0 -243 -130 0
-129 0 6 230 6 230 -261 0 -262 0 0 -135 0 -135 -115 0 -115 0 0 170 0 170
-75 0 -75 0 0 75 0 75 -100 0 -100 0 0 -175z m828 -187 c-3 -31 -6 -33 -45
-36 l-43 -3 0 35 c0 36 0 36 46 36 45 0 45 0 42 -32z m122 -3 c0 -34 -1 -35
-40 -35 -39 0 -40 1 -40 35 0 34 1 35 40 35 39 0 40 -1 40 -35z m690 -5 l0
-40 -45 0 -45 0 0 40 0 40 45 0 45 0 0 -40z m140 -1 l0 -40 -42 3 c-42 3 -43
4 -46 41 l-3 37 45 0 46 0 0 -41z m148 4 c-3 -37 -4 -38 -45 -41 l-43 -3 0 40
0 41 46 0 45 0 -3 -37z m142 -3 l0 -40 -45 0 -45 0 0 40 0 40 45 0 45 0 0 -40z
m-1242 -97 c3 -33 3 -33 -42 -33 -46 0 -46 0 -46 36 l0 35 43 -3 c39 -3 42 -5
45 -35z m122 2 c0 -34 -1 -35 -40 -35 -39 0 -40 1 -40 35 0 34 1 35 40 35 39
0 40 -1 40 -35z m690 -15 l0 -40 -45 0 -45 0 0 38 0 38 45 3 45 2 0 -41z m140
0 l0 -40 -45 0 c-44 0 -45 0 -45 33 0 43 5 47 52 47 38 0 38 0 38 -40z m148
31 c1 -1 2 -17 2 -36 0 -35 0 -35 -45 -35 l-45 0 0 41 0 40 43 -5 c23 -3 43
-5 45 -5z m142 -31 l0 -40 -45 0 -45 0 0 40 0 40 45 0 45 0 0 -40z m-2342 -17
c3 -32 2 -33 -37 -33 -40 0 -41 1 -41 36 0 35 1 35 38 32 34 -3 37 -6 40 -35z
m130 5 c-3 -31 -6 -33 -45 -36 l-43 -3 0 35 c0 36 0 36 46 36 45 0 45 0 42
-32z m970 -75 c3 -33 3 -33 -42 -33 -44 0 -46 1 -46 29 0 23 5 31 23 34 48 10
62 3 65 -30z m122 -3 c0 -28 -2 -30 -40 -30 -38 0 -40 2 -40 30 0 28 2 30 40
30 38 0 40 -2 40 -30z m-1222 -24 c4 -33 -10 -46 -50 -46 -25 0 -28 4 -28 33
0 42 7 49 45 45 25 -2 31 -8 33 -32z m1912 -1 c0 -23 -5 -35 -14 -35 -7 0 -28
-3 -45 -6 -31 -6 -31 -6 -31 35 l0 41 45 0 c45 0 45 0 45 -35z m150 0 l0 -35
-50 0 -50 0 0 35 0 35 50 0 50 0 0 -35z m140 0 c0 -35 0 -35 -45 -35 -45 0
-45 0 -45 35 0 35 0 35 45 35 45 0 45 0 45 -35z m140 -5 c0 -43 -3 -45 -59
-34 -27 6 -31 10 -31 40 0 34 1 34 45 34 l45 0 0 -40z m-2212 -2 c-3 -31 -5
-33 -43 -33 -38 0 -40 2 -43 33 -3 32 -3 32 43 32 46 0 46 0 43 -32z m-128
-103 c0 -34 -1 -35 -40 -35 -39 0 -40 1 -40 35 0 34 1 35 40 35 39 0 40 -1 40
-35z m130 0 c0 -35 0 -35 -45 -35 -45 0 -45 0 -45 35 0 35 0 35 45 35 45 0 45
0 45 -35z m2210 -5 l0 -40 -45 0 -45 0 0 40 0 40 45 0 45 0 0 -40z"/>
<path d="M891 6635 l-391 -389 0 -843 0 -843 390 0 390 0 0 816 0 815 33 -3
32 -3 0 -813 0 -812 383 0 382 0 0 818 0 817 -414 414 -415 414 -390 -388z
m379 55 l0 -40 -45 0 -45 0 0 40 0 40 45 0 45 0 0 -40z m138 3 c-3 -38 -3 -38
-48 -38 -45 0 -45 0 -48 38 l-3 37 51 0 51 0 -3 -37z m-138 -123 l0 -40 -45 0
-45 0 0 40 0 40 45 0 45 0 0 -40z m140 0 l0 -40 -45 0 -45 0 0 40 0 40 45 0
45 0 0 -40z m-320 -545 l0 -165 -185 0 -185 0 0 165 0 165 185 0 185 0 0 -165z
m810 0 l0 -165 -185 0 -185 0 0 165 0 165 185 0 185 0 0 -165z m-815 -565 l0
-165 -182 -3 -183 -2 0 170 0 170 183 -2 182 -3 0 -165z m815 0 l0 -170 -185
0 -185 0 0 163 c0 90 3 167 7 170 3 4 87 7 185 7 l178 0 0 -170z m-812 -557
l-3 -168 -180 0 -180 0 -3 168 -2 167 185 0 185 0 -2 -167z m812 -3 l0 -170
-182 2 -183 3 -3 168 -2 167 185 0 185 0 0 -170z"/>
<path d="M780 6025 l0 -105 45 0 45 0 0 105 0 105 -45 0 -45 0 0 -105z"/>
<path d="M930 6025 l0 -105 50 0 50 0 0 105 0 105 -50 0 -50 0 0 -105z"/>
<path d="M1590 6025 l0 -105 50 0 50 0 0 105 0 105 -50 0 -50 0 0 -105z"/>
<path d="M1750 6025 l0 -105 45 0 45 0 0 105 0 105 -45 0 -45 0 0 -105z"/>
<path d="M780 5460 l0 -110 45 0 45 0 0 110 0 110 -45 0 -45 0 0 -110z"/>
<path d="M930 5460 l0 -111 48 3 47 3 0 105 0 105 -47 3 -48 3 0 -111z"/>
<path d="M1597 5563 c-4 -3 -7 -53 -7 -110 l0 -103 50 0 50 0 0 110 0 110 -43
0 c-24 0 -47 -3 -50 -7z"/>
<path d="M1749 5566 c-2 -2 -3 -52 -1 -110 l3 -106 45 0 44 0 0 110 0 110 -43
0 c-24 0 -46 -2 -48 -4z"/>
<path d="M780 4905 l0 -105 45 0 45 0 0 105 0 105 -45 0 -45 0 0 -105z"/>
<path d="M932 4903 l3 -108 45 0 45 0 3 108 3 107 -51 0 -51 0 3 -107z"/>
<path d="M1592 4903 l3 -108 45 0 45 0 3 108 3 107 -51 0 -51 0 3 -107z"/>
<path d="M1742 4903 l3 -108 48 -3 47 -3 0 110 0 111 -50 0 -51 0 3 -107z"/>
<path d="M5195 6890 c-9 -14 6 -450 15 -450 3 0 149 -146 323 -324 262 -269
316 -329 313 -348 -3 -13 -5 -32 -6 -43 0 -15 -43 23 -158 141 -86 89 -343
350 -570 580 l-414 418 -240 -242 c-212 -214 -238 -243 -229 -261 19 -35 13
-58 -19 -71 -20 -8 -30 -19 -30 -34 0 -36 -29 -122 -48 -146 -12 -15 -38 -27
-76 -34 -53 -11 -59 -15 -75 -52 l-19 -41 50 -64 c101 -132 151 -262 152 -394
1 -71 -4 -90 -38 -170 -21 -49 -42 -100 -46 -112 -8 -19 1 -25 118 -77 70 -31
132 -56 138 -56 6 0 17 14 24 30 25 59 114 99 177 79 32 -10 50 -39 38 -60 -4
-6 2 -20 13 -32 11 -12 25 -32 31 -44 14 -27 15 -164 1 -195 -7 -17 -3 -62 18
-173 l29 -150 196 -3 197 -2 0 175 0 174 -135 3 -135 3 85 140 85 140 -60 3
c-33 2 -60 6 -60 10 0 4 36 68 79 142 l79 135 -45 3 c-24 2 -43 6 -41 10 25
57 183 311 189 305 10 -10 189 -302 189 -308 0 -2 -19 -5 -43 -7 l-43 -3 77
-135 c43 -74 78 -138 79 -142 0 -5 -27 -8 -60 -8 -33 0 -60 -4 -60 -8 0 -10
97 -174 139 -235 l32 -47 -141 0 -140 0 0 -53 c0 -30 -3 -109 -7 -175 l-6
-122 155 0 154 0 23 49 c26 57 70 100 142 137 51 25 362 143 619 234 74 26
163 61 197 78 128 65 157 167 70 249 -17 17 -95 62 -172 101 -140 71 -195 113
-241 182 -76 115 -10 276 144 352 l67 33 352 3 353 3 0 350 0 349 -185 0 -185
0 0 -185 0 -185 -65 0 -65 0 0 210 0 210 -65 0 -65 0 0 40 0 40 -90 0 -90 0 0
-52 0 -51 -112 6 c-62 4 -137 7 -165 7 l-53 0 0 90 0 90 -319 0 c-213 0 -322
-4 -326 -10z m256 -113 c-1 -4 -1 -20 -1 -37 0 -28 -2 -30 -40 -30 -39 0 -40
1 -40 34 0 32 3 35 33 39 40 5 49 4 48 -6z m129 -32 c0 -34 -1 -35 -40 -35
-39 0 -40 1 -40 35 0 34 1 35 40 35 39 0 40 -1 40 -35z m-122 -97 c-3 -31 -6
-33 -45 -36 l-43 -3 0 35 c0 36 0 36 46 36 45 0 45 0 42 -32z m122 -3 c0 -34
-1 -35 -40 -35 -39 0 -40 1 -40 35 0 34 1 35 40 35 39 0 40 -1 40 -35z m-900
-45 l0 -40 -45 0 -45 0 0 40 0 40 45 0 45 0 0 -40z m150 0 l0 -40 -50 0 c-50
0 -50 0 -50 33 0 43 5 47 57 47 l43 0 0 -40z m624 -38 c-1 -7 -2 -23 -2 -37
-2 -22 -6 -25 -42 -25 -39 0 -40 1 -40 34 0 32 3 35 33 39 42 5 52 3 51 -11z
m126 -22 l0 -40 -40 0 -40 0 0 40 0 40 40 0 40 0 0 -40z m440 -5 l0 -45 -50 0
-50 0 0 45 0 45 50 0 50 0 0 -45z m160 0 l0 -45 -50 0 -50 0 0 45 0 45 50 0
50 0 0 -45z m-1500 -65 l0 -40 -45 0 -45 0 0 40 0 40 45 0 45 0 0 -40z m150 0
l0 -40 -50 0 -50 0 0 40 0 40 50 0 50 0 0 -40z m1190 -66 l0 -45 -47 3 -48 3
-3 43 -3 42 50 0 51 0 0 -46z m160 1 l0 -45 -50 0 -50 0 0 45 0 45 50 0 50 0
0 -45z m-160 -130 l0 -45 -50 0 -50 0 0 45 0 45 50 0 50 0 0 -45z m160 0 l0
-45 -50 0 -50 0 0 45 0 45 50 0 50 0 0 -45z m-160 -136 l0 -50 -47 3 -48 3 -3
48 -3 47 50 0 51 0 0 -51z m160 0 l0 -50 -47 3 -48 3 -3 48 -3 47 50 0 51 0 0
-51z m-332 -626 c-1 -24 -5 -43 -9 -43 -3 0 -113 110 -243 244 -235 242 -236
244 -236 287 l0 44 245 -245 245 -245 -2 -42z m-239 50 c239 -245 241 -247
241 -290 0 -24 -4 -43 -9 -43 -5 0 -28 21 -51 48 -23 26 -132 138 -241 249
-198 200 -200 202 -197 242 1 23 5 41 9 41 4 0 115 -111 248 -247z"/>
<path d="M2448 6543 l-268 -268 0 -858 0 -857 75 0 75 0 0 255 0 255 114 0
114 0 7 -91 c4 -50 4 -165 0 -255 l-7 -164 381 0 381 0 0 44 c0 35 -4 46 -18
50 -11 4 -29 17 -42 31 -32 34 -30 88 8 169 l30 65 -56 16 c-67 20 -115 64
-131 120 -6 22 -11 121 -11 223 0 120 -4 182 -11 182 -5 0 -17 17 -26 38 -12
29 -14 61 -10 142 5 108 17 152 58 204 25 32 111 76 149 76 38 0 48 11 52 54
3 38 3 38 -44 50 -65 17 -118 59 -118 95 0 37 19 59 55 63 29 3 30 5 32 53 l3
50 -263 263 -262 263 -267 -268z m252 12 c0 -34 -1 -35 -40 -35 -39 0 -40 1
-40 35 0 34 1 35 40 35 39 0 40 -1 40 -35z m120 0 c0 -34 -1 -35 -40 -35 -39
0 -40 1 -40 35 0 34 1 35 40 35 39 0 40 -1 40 -35z m-120 -110 c0 -34 -1 -35
-40 -35 -39 0 -40 1 -40 35 0 34 1 35 40 35 39 0 40 -1 40 -35z m120 0 c0 -34
-1 -35 -40 -35 -39 0 -40 1 -40 35 0 34 1 35 40 35 39 0 40 -1 40 -35z m-250
-420 l0 -165 -120 0 -120 0 0 165 0 165 120 0 120 0 0 -165z m410 135 c0 -28
-3 -30 -35 -30 l-35 0 0 -105 0 -105 50 0 c49 0 50 -1 50 -30 l0 -30 -170 0
-170 0 0 165 0 165 155 0 155 0 0 -30z m-415 -700 l0 -165 -117 -3 -118 -3 0
171 0 171 118 -3 117 -3 0 -165z m345 0 l0 -171 -117 3 -118 3 -3 155 c-1 85
0 160 2 167 4 10 36 13 121 13 l115 0 0 -170z m70 -420 c0 -28 -3 -30 -35 -30
l-35 0 0 -105 0 -105 91 0 90 0 -3 -32 -3 -33 -205 0 -205 0 -3 168 -2 167
155 0 155 0 0 -30z"/>
<path d="M2390 6025 l0 -105 60 0 60 0 0 105 0 105 -60 0 -60 0 0 -105z"/>
<path d="M2730 6025 l0 -105 60 0 60 0 0 105 0 105 -60 0 -60 0 0 -105z"/>
<path d="M2390 5460 l0 -111 58 3 57 3 3 108 3 107 -61 0 -60 0 0 -110z"/>
<path d="M2730 5460 l0 -110 60 0 60 0 0 110 0 110 -60 0 -60 0 0 -110z"/>
<path d="M2730 4905 l0 -105 60 0 60 0 0 105 0 105 -60 0 -60 0 0 -105z"/>
<path d="M3774 6694 c-27 -14 -75 -29 -106 -34 -231 -35 -271 -77 -266 -279 3
-99 1 -109 -24 -151 -34 -58 -67 -89 -114 -105 l-37 -12 38 -13 c76 -25 186
11 225 74 28 47 39 85 51 184 13 113 28 146 78 172 l41 20 0 -72 c0 -83 20
-137 75 -204 25 -30 35 -52 35 -76 0 -47 -55 -135 -110 -176 -96 -71 -108 -82
-136 -129 -15 -26 -40 -84 -55 -128 -29 -86 -31 -85 -44 20 -4 28 -11 67 -17
87 l-11 37 -28 -23 c-17 -14 -47 -26 -80 -30 -124 -17 -161 -63 -167 -206 l-4
-95 26 51 c14 28 37 61 50 73 l24 22 -21 -68 c-16 -57 -21 -106 -24 -296 -3
-125 -2 -243 1 -262 11 -57 53 -78 163 -83 51 -3 93 -8 93 -12 0 -4 -14 -25
-30 -46 -90 -117 -117 -181 -88 -211 15 -14 39 -8 100 25 3 2 0 -19 -8 -45
-23 -75 -19 -147 13 -242 l29 -84 -61 -313 c-52 -262 -66 -318 -86 -343 -13
-16 -55 -64 -92 -107 -83 -95 -113 -157 -167 -339 -81 -270 -99 -314 -157
-370 -65 -62 -96 -129 -97 -210 l-1 -59 65 -44 c36 -24 108 -65 160 -90 83
-41 104 -47 172 -51 71 -3 79 -1 102 23 49 48 33 89 -48 126 -105 47 -146 116
-160 266 l-5 62 88 140 c212 335 302 468 371 550 38 46 100 147 185 305 70
130 129 237 132 237 3 0 72 -63 153 -141 l149 -141 0 -157 c-1 -179 -2 -176
104 -388 80 -160 94 -204 101 -323 9 -156 41 -220 111 -220 85 0 339 113 394
175 45 52 41 98 -11 128 -36 21 -37 21 -103 4 -73 -20 -117 -16 -178 15 -51
26 -70 60 -106 196 -41 159 -61 312 -67 532 l-6 185 -55 95 c-61 104 -235 363
-320 476 l-53 71 14 157 c7 86 15 159 17 161 5 4 168 -29 337 -70 62 -15 127
-25 143 -23 20 3 30 0 34 -11 6 -22 29 -137 60 -306 14 -77 44 -234 65 -350
21 -115 51 -273 65 -350 60 -327 137 -701 145 -709 21 -21 20 9 -4 136 -13 73
-54 291 -91 483 -36 193 -74 395 -84 450 -11 55 -43 227 -71 383 -49 267 -51
284 -35 302 13 14 15 29 10 67 -11 83 -14 91 -38 95 -18 2 -22 9 -22 40 0 34
-2 37 -25 32 -26 -6 -36 -16 -73 -73 -12 -19 -29 -38 -37 -43 -11 -7 -65 11
-190 65 l-175 75 3 32 c1 17 23 86 48 153 42 112 45 128 41 192 -8 121 -58
231 -162 354 l-53 63 38 81 39 82 43 3 c80 5 86 8 103 64 8 28 15 62 15 75 0
13 11 33 25 45 13 11 22 25 19 29 -2 4 -13 58 -25 119 -22 123 -33 151 -76
192 -67 64 -199 79 -289 32z m-113 -1246 l-61 -154 15 -148 c9 -82 14 -150 12
-152 -3 -4 -78 230 -93 288 -4 20 1 43 21 80 36 70 156 251 162 245 2 -3 -23
-75 -56 -159z"/>
<path d="M6315 5876 c-64 -20 -102 -44 -130 -80 -55 -72 -40 -143 44 -217 62
-55 110 -82 246 -139 147 -61 209 -101 240 -155 81 -137 -16 -232 -402 -399
-242 -104 -350 -162 -410 -221 -93 -91 -90 -172 9 -259 67 -58 219 -137 343
-176 243 -78 449 -218 505 -342 27 -59 26 -149 -1 -205 -45 -92 -207 -199
-399 -262 -52 -17 -169 -52 -260 -77 -253 -70 -515 -151 -615 -191 -125 -49
-295 -135 -455 -230 -74 -44 -162 -95 -195 -113 -33 -18 -114 -65 -180 -104
-145 -85 -216 -116 -548 -240 -321 -119 -546 -191 -808 -255 -252 -62 -513
-143 -593 -183 -128 -64 -225 -142 -277 -222 -22 -33 -39 -65 -39 -73 0 -11
378 -13 2285 -13 l2285 0 0 140 c0 77 -2 140 -5 140 -3 0 -41 -18 -85 -40 -69
-34 -89 -40 -145 -40 -56 0 -76 5 -138 37 -98 50 -153 50 -257 0 -104 -52
-166 -51 -270 0 -97 49 -138 49 -240 -1 -103 -50 -166 -50 -269 -1 -114 55
-142 55 -248 6 -123 -56 -173 -56 -296 0 -106 49 -140 49 -240 -3 -47 -25 -78
-34 -127 -36 -59 -4 -71 -1 -135 34 -47 25 -84 37 -113 38 l-43 1 31 28 c36
32 57 30 140 -17 78 -44 140 -42 240 7 103 51 165 51 267 1 109 -54 142 -55
250 -5 121 56 165 56 286 0 108 -50 138 -49 252 6 99 47 156 46 261 -5 95 -48
151 -47 254 3 102 51 158 51 260 0 105 -51 159 -51 261 -1 41 21 83 38 92 38
15 0 17 13 17 105 0 81 -3 105 -13 105 -8 0 -45 -16 -82 -36 -50 -27 -85 -38
-130 -42 -56 -4 -70 -1 -145 33 -121 55 -149 56 -251 9 -115 -53 -181 -53
-289 -1 -97 48 -133 48 -230 0 -107 -52 -175 -52 -284 0 -104 49 -146 49 -246
0 -105 -53 -172 -53 -286 0 -104 47 -138 47 -234 1 -47 -22 -96 -38 -130 -41
l-55 -5 115 66 c65 37 132 68 155 72 50 7 110 -8 187 -47 82 -42 138 -40 231
8 61 31 82 37 137 37 55 1 77 -5 144 -37 103 -49 145 -49 244 0 101 50 157 50
268 0 107 -49 148 -49 249 0 107 51 162 50 274 -2 107 -50 151 -51 247 -2 38
19 83 38 100 42 l32 6 1 100 c2 119 3 118 -115 62 -108 -52 -171 -52 -276 0
-101 50 -152 50 -245 0 -59 -32 -77 -36 -135 -36 -56 0 -79 6 -143 37 -102 48
-146 48 -245 0 -104 -51 -160 -51 -265 -1 -104 50 -150 50 -252 0 -94 -46
-169 -50 -251 -13 -53 23 -53 23 -34 43 20 19 22 19 61 3 66 -26 116 -20 211
24 112 53 158 53 260 4 113 -54 151 -55 251 -8 71 33 92 39 149 38 54 0 78 -7
140 -37 99 -49 139 -49 239 0 65 33 85 38 141 37 54 0 78 -7 140 -37 98 -49
142 -49 238 -2 39 19 85 38 101 41 l31 7 0 103 0 104 -27 -6 c-16 -4 -59 -22
-98 -41 -99 -47 -164 -46 -265 4 -102 50 -150 50 -250 0 -103 -51 -161 -51
-274 0 -107 48 -146 48 -255 -1 -76 -35 -90 -38 -145 -33 -39 3 -85 16 -129
37 -48 23 -78 31 -102 28 -19 -2 -35 -1 -35 3 0 3 18 18 39 33 l39 27 73 -35
c101 -49 160 -49 260 -1 101 48 158 48 259 -1 105 -51 159 -51 259 -1 103 51
158 51 261 0 106 -51 168 -52 264 0 38 20 81 37 96 37 l27 0 6 107 c4 58 7
744 7 1525 l0 1418 -312 -1 c-223 0 -325 -4 -353 -13z"/>
<path d="M2390 4785 l0 -225 59 0 59 0 -1 223 -2 222 -57 3 -58 3 0 -226z"/>
<path d="M4047 4903 c-2 -5 -7 -55 -11 -113 l-7 -105 48 -62 c44 -58 51 -63
88 -64 71 -2 330 3 333 6 3 2 -34 202 -44 236 -5 17 -6 17 -243 73 -178 41
-159 38 -164 29z"/>
<path d="M505 4458 c-3 -7 -4 -623 -3 -1368 l3 -1355 42 76 c122 221 330 421
576 554 l87 47 0 164 0 164 -220 0 c-121 0 -220 3 -220 6 0 3 13 24 28 47 46
68 232 365 232 371 0 3 -40 7 -90 8 l-89 3 129 209 c72 115 130 213 130 218 0
4 -30 8 -66 8 -56 0 -65 2 -60 16 9 23 245 407 260 422 11 11 18 5 41 -35 15
-26 77 -128 137 -225 59 -98 108 -179 108 -181 0 -2 -29 -1 -65 1 -36 2 -65 1
-65 -3 0 -8 113 -196 204 -340 l57 -90 -90 -3 c-50 -1 -91 -6 -91 -10 0 -4 59
-99 129 -212 l129 -205 -221 -5 c-169 -4 -222 -8 -221 -17 1 -7 2 -71 3 -142
l1 -130 98 40 c176 72 449 152 662 193 l115 23 -1 207 c0 113 -3 208 -5 211
-3 2 -94 5 -202 5 -108 1 -197 5 -197 10 0 5 53 93 118 197 l119 188 -84 3
c-46 1 -83 5 -83 7 0 2 54 93 120 202 l120 198 -65 3 c-36 2 -65 5 -65 7 0 5
192 318 234 382 20 31 36 42 36 26 0 -5 56 -98 125 -208 l124 -200 -60 -3
c-32 -2 -59 -6 -59 -9 0 -9 39 -75 142 -241 48 -78 88 -147 88 -152 0 -6 -35
-10 -80 -10 l-80 0 39 -62 c21 -35 75 -121 120 -192 44 -71 81 -133 81 -137 0
-5 -92 -9 -205 -9 l-205 0 0 -206 0 -207 38 6 c20 3 126 18 235 33 l198 28 25
50 c14 28 52 78 83 111 56 58 59 65 105 210 97 304 108 334 144 394 20 34 70
98 111 142 l74 81 59 304 60 304 -18 45 -17 45 -1419 0 c-1126 0 -1420 -3
-1423 -12z"/>
<path d="M4190 4466 c0 -3 43 -71 95 -151 53 -80 111 -174 129 -208 33 -61 34
-64 39 -227 4 -91 13 -221 22 -290 14 -120 43 -270 52 -270 2 0 36 14 75 30
38 17 75 30 82 30 38 1 37 10 -59 525 -52 281 -98 522 -101 538 l-6 27 -164 0
c-90 0 -164 -2 -164 -4z"/>
<path d="M4688 4465 c-3 -3 3 -47 13 -98 20 -100 103 -538 144 -763 15 -77 30
-146 34 -152 5 -9 36 -5 122 18 63 16 197 44 299 60 293 49 456 79 587 110
256 61 359 153 312 277 -32 85 -188 184 -439 277 -74 28 -152 65 -192 92 -66
44 -122 112 -134 161 l-6 23 -367 0 c-202 0 -370 -2 -373 -5z"/>
<path d="M3836 4013 c-58 -124 -206 -376 -248 -423 -53 -59 -124 -164 -316
-466 -115 -180 -122 -194 -122 -242 l0 -51 33 5 c251 43 441 92 602 156 125
49 419 193 436 214 10 12 2 36 -49 142 -90 186 -92 193 -92 361 l0 146 -104
98 c-58 53 -108 97 -113 97 -5 0 -17 -17 -27 -37z"/>
<path d="M2050 1395 c-106 -30 -183 -93 -231 -190 -21 -43 -24 -64 -24 -155 0
-95 3 -111 28 -162 70 -142 218 -218 384 -197 115 15 218 91 271 199 24 49 27
67 27 155 0 88 -3 106 -27 155 -77 157 -262 241 -428 195z m153 -146 c141 -39
194 -232 95 -345 -43 -49 -83 -67 -145 -66 -141 1 -231 132 -189 274 32 111
130 168 239 137z"/>
<path d="M5994 1400 c-233 -46 -349 -313 -232 -532 37 -70 82 -112 158 -147
47 -22 69 -26 150 -26 81 0 103 4 150 26 53 25 130 87 130 105 0 5 -23 29 -51
53 l-50 43 -27 -25 c-49 -45 -89 -59 -158 -55 -72 4 -103 22 -147 84 -72 102
-32 266 77 315 72 33 173 16 215 -35 20 -23 31 -20 85 28 45 40 47 44 35 65
-21 34 -97 78 -164 96 -64 16 -106 17 -171 5z"/>
<path d="M503 1053 l2 -348 80 0 80 0 3 123 3 122 102 0 c86 0 110 4 153 24
93 43 138 138 115 240 -17 76 -51 119 -118 153 -56 27 -64 28 -240 31 l-182 4
2 -349z m338 181 c33 -30 41 -60 25 -98 -17 -40 -55 -56 -137 -56 l-59 0 0 91
0 92 75 -5 c55 -4 81 -10 96 -24z"/>
<path d="M1140 1050 l0 -350 80 0 80 0 0 125 0 125 48 0 c47 0 47 0 81 -57 19
-32 54 -88 77 -125 l44 -68 85 0 c61 0 85 3 85 13 0 6 -36 67 -79 134 l-80
122 42 23 c22 13 55 43 72 66 27 39 30 52 30 115 0 85 -19 125 -83 173 -57 44
-115 54 -312 54 l-170 0 0 -350z m370 181 c37 -27 40 -91 5 -119 -33 -26 -92
-36 -161 -27 l-54 6 0 83 0 82 93 -4 c67 -3 99 -8 117 -21z"/>
<path d="M2530 1392 c0 -5 17 -51 39 -103 21 -52 82 -205 136 -341 l97 -248
73 0 73 0 15 43 c27 74 146 377 203 513 30 72 54 134 54 138 0 3 -39 6 -87 6
l-88 0 -43 -123 c-24 -67 -61 -171 -81 -230 -21 -59 -41 -110 -43 -113 -3 -2
-43 100 -90 228 l-85 233 -87 3 c-47 1 -86 -1 -86 -6z"/>
<path d="M3292 1053 l3 -348 78 -3 77 -3 0 351 0 350 -80 0 -80 0 2 -347z"/>
<path d="M3600 1050 l0 -353 178 5 c145 4 187 9 235 26 149 53 228 165 229
322 0 156 -74 263 -223 322 -46 18 -81 22 -236 26 l-183 4 0 -352z m353 187
c119 -50 161 -195 88 -307 -38 -60 -88 -80 -194 -80 l-87 0 0 200 0 200 80 0
c45 0 95 -6 113 -13z"/>
<path d="M4350 1050 l0 -350 260 0 260 0 0 70 0 70 -180 0 -181 0 3 71 3 71
152 1 153 2 0 68 0 67 -155 0 -155 0 0 70 0 70 175 0 175 0 0 70 0 70 -255 0
-255 0 0 -350z"/>
<path d="M4982 1053 l3 -348 78 -3 77 -3 0 213 1 213 35 -40 c20 -22 95 -118
166 -212 l131 -173 63 0 64 0 1 323 c1 177 2 333 3 347 1 24 -1 25 -76 28
l-78 3 0 -201 c0 -110 -3 -200 -7 -200 -5 1 -76 89 -159 198 l-150 197 -77 3
-77 3 2 -348z"/>
<path d="M6444 1354 c3 -26 6 -183 6 -350 l0 -304 173 0 c94 0 209 3 255 7
l82 6 0 63 0 64 -177 2 -178 3 0 70 0 70 158 3 157 3 0 53 c0 86 9 81 -159 78
l-148 -4 -6 63 c-3 35 -3 67 -1 71 3 4 81 8 175 8 l169 0 0 70 0 70 -256 0
-257 0 7 -46z"/>
<path d="M602 504 c-110 -55 -157 -196 -105 -315 63 -141 249 -182 364 -80
l42 37 -35 28 -36 27 -37 -26 c-65 -43 -150 -29 -191 32 -24 37 -25 129 -1
166 43 65 129 81 190 34 l34 -26 32 33 c17 17 31 37 31 44 0 6 -24 25 -52 42
-72 41 -160 42 -236 4z"/>
<path d="M1525 512 c-51 -24 -93 -66 -116 -117 -22 -48 -25 -151 -6 -198 79
-187 356 -195 438 -12 54 121 18 250 -87 311 -62 36 -170 44 -229 16z m173
-99 c60 -37 81 -137 42 -200 -49 -81 -171 -84 -225 -6 -21 30 -29 96 -16 136
28 83 124 118 199 70z"/>
<path d="M1994 511 c-94 -43 -99 -183 -7 -229 21 -11 63 -27 93 -36 74 -22 82
-28 78 -61 -6 -56 -106 -56 -159 -1 l-23 24 -33 -27 c-18 -14 -33 -32 -33 -38
0 -22 80 -72 134 -83 122 -25 219 35 219 135 0 77 -23 97 -188 161 -30 12 -51
27 -53 37 -10 50 69 64 129 23 l36 -25 34 35 34 36 -30 24 c-58 47 -159 58
-231 25z"/>
<path d="M2394 511 c-56 -26 -74 -54 -74 -119 0 -47 4 -58 30 -82 16 -15 66
-40 111 -56 88 -31 112 -52 93 -81 -8 -13 -27 -19 -60 -21 -40 -2 -57 2 -87
23 -21 14 -41 25 -46 25 -4 0 -20 -14 -37 -31 l-29 -31 35 -29 c88 -74 220
-76 290 -4 30 31 34 41 34 89 1 45 -4 59 -24 81 -31 33 -69 54 -139 74 -66 20
-91 50 -65 76 24 24 97 15 130 -16 l25 -23 37 37 c36 37 37 38 17 54 -69 53
-168 67 -241 34z"/>
<path d="M3244 507 c-85 -41 -125 -109 -126 -212 0 -79 24 -136 78 -183 94
-84 235 -81 327 6 79 74 95 195 40 293 -43 77 -100 111 -196 116 -61 3 -80 0
-123 -20z m182 -92 c60 -39 79 -118 45 -187 -65 -135 -251 -85 -251 67 0 112
116 179 206 120z"/>
<path d="M960 290 l0 -230 50 0 50 0 0 85 0 85 38 0 c36 0 38 -2 87 -85 l50
-85 58 0 c31 0 57 3 57 8 0 4 -24 45 -54 91 l-54 84 32 21 c61 42 82 121 48
185 -32 60 -68 71 -224 71 l-138 0 0 -230z m266 115 c35 -53 -5 -85 -107 -85
l-59 0 0 55 0 55 75 0 c68 0 76 -2 91 -25z"/>
<path d="M2690 475 l0 -45 75 0 75 0 0 -185 0 -185 50 0 50 0 0 185 0 185 75
0 75 0 0 45 0 45 -200 0 -200 0 0 -45z"/>
<path d="M3612 508 c3 -7 38 -111 77 -231 l73 -217 46 0 47 0 45 145 c24 80
47 142 51 137 4 -4 26 -69 50 -144 l43 -138 46 0 46 0 68 212 c38 117 71 221
73 231 5 15 -2 17 -50 17 -44 0 -57 -4 -61 -17 -2 -10 -14 -49 -24 -88 -11
-38 -28 -97 -38 -130 l-17 -60 -46 145 -47 145 -44 3 -45 3 -44 -145 c-24 -80
-47 -143 -52 -140 -5 3 -9 10 -9 17 0 6 -18 69 -40 139 l-41 128 -55 0 c-41 0
-55 -3 -52 -12z"/>
<path d="M4340 290 l0 -230 50 0 50 0 0 141 c0 86 4 138 10 134 5 -3 55 -66
111 -140 l102 -135 43 0 44 0 0 230 0 230 -50 0 -50 0 0 -130 c0 -71 -3 -130
-7 -129 -5 0 -53 58 -108 130 l-100 129 -47 0 -48 0 0 -230z"/>
<path d="M5000 475 l0 -45 75 0 75 0 0 -185 0 -185 50 0 50 0 0 185 0 185 75
0 75 0 0 45 0 45 -200 0 -200 0 0 -45z"/>
<path d="M5450 290 l0 -230 55 0 55 0 0 85 0 85 34 0 c31 0 37 -5 83 -83 l49
-82 62 -3 c34 -2 62 0 62 3 0 3 -23 39 -50 80 -67 99 -67 101 -31 119 62 33
84 136 40 197 -35 49 -71 59 -224 59 l-135 0 0 -230z m262 123 c10 -9 18 -26
18 -39 0 -36 -36 -54 -107 -54 l-63 0 0 55 0 55 67 0 c48 0 72 -5 85 -17z"/>
<path d="M6055 484 c-8 -20 -15 -38 -15 -40 0 -2 -36 -85 -80 -185 -44 -100
-80 -186 -80 -191 0 -4 24 -8 53 -8 52 0 53 1 66 38 22 60 25 62 127 62 l93 0
18 -50 18 -50 57 0 c32 0 58 1 58 3 0 1 -44 104 -98 227 l-97 225 -52 3 c-52
3 -52 3 -68 -34z m125 -236 c0 -9 -81 -11 -103 -2 -13 4 -10 18 16 79 l31 74
28 -72 c15 -40 28 -75 28 -79z"/>
<path d="M6420 290 l0 -230 55 0 55 0 0 230 0 230 -55 0 -55 0 0 -230z"/>
<path d="M6630 290 l0 -230 165 0 165 0 0 45 0 45 -72 2 c-40 1 -86 3 -103 4
-16 1 -36 3 -43 3 -10 1 -13 37 -12 169 1 92 1 173 1 180 -1 8 -18 12 -51 12
l-50 0 0 -230z"/>
</g>
</svg>
